<?xml version='1.0' encoding='utf-8'?>
<svg xmlns="http://www.w3.org/2000/svg" width="420mm" height="194.5mm" viewBox="0 0 1000000 463095"><defs><style>.C1 {stroke: #606060; stroke-width: 429; stroke-opacity: 1.000; fill: none; fill-opacity: 1.000;}</style><style>.C2 {stroke: #000000; stroke-width: 1190; stroke-opacity: 1.000; fill: none; fill-opacity: 1.000;}</style><style>.C3 {stroke: #000000; stroke-width: 429; stroke-opacity: 1.000; fill: none; fill-opacity: 1.000;}</style><style>.C4 {stroke: #000000; stroke-width: 1667; stroke-opacity: 1.000; fill: none; fill-opacity: 1.000;}</style><style>.C5 {stroke: #606060; stroke-width: 214; stroke-opacity: 1.000; fill: none; fill-opacity: 1.000;}</style><style>.C6 {stroke: none; stroke-width: none; stroke-opacity: 1.000; fill: #ffffff; fill-opacity: 1.000;}</style><style>.C7 {stroke: none; stroke-width: none; stroke-opacity: 1.000; fill: #606060; fill-opacity: 1.000;}</style><style>.C8 {stroke: #000000; stroke-width: 595; stroke-opacity: 1.000; fill: none; fill-opacity: 1.000;}</style><style>.C9 {stroke: none; stroke-width: none; stroke-opacity: 1.000; fill: #000000; fill-opacity: 1.000;}</style></defs><rect fill="#ffffff" x="0" y="0" width="1000000" height="463095" fill-opacity="1.0" /><g stroke-linecap="round" stroke-linejoin="round" fill-rule="evenodd"><path d="M 349659 174759 l 15648 -15648 m -10471 15648 l 10471 -10471 m -5294 10471 l 5294 -5294 m -117 5294 l 117 -117 m -237426 -16249 l 230 -230 m -230 5407 l 5407 -5407 m -5407 10584 l 10584 -10584 m -10584 15761 l 15761 -15761 m -11418 16595 l 16595 -16595 m -11418 16595 l 16595 -16595 m -11418 16595 l 16595 -16595 m -11418 16595 l 16595 -16595 m -11418 16595 l 16595 -16595 m -11418 16595 l 16595 -16595 m -11418 16595 l 16595 -16595 m -11418 16595 l 16595 -16595 m -11418 16595 l 16595 -16595 m -11418 16595 l 16595 -16595 m -11418 16595 l 16595 -16595 m -11418 16595 l 16595 -16595 m -11418 16595 l 16595 -16595 m -11418 16595 l 16595 -16595 m -11418 16595 l 16595 -16595 m -11418 16595 l 16595 -16595 m -11418 16595 l 16595 -16595 m -11418 16595 l 16595 -16595 m -11418 16595 l 16595 -16595 m -11418 16595 l 16595 -16595 m -11418 16595 l 16595 -16595 m -11418 16595 l 16595 -16595 m -11418 16595 l 16595 -16595 m -11418 16595 l 16595 -16595 m -11418 16595 l 16595 -16595 m -11418 16595 l 16595 -16595 m -11418 16595 l 16595 -16595 m -11418 16595 l 16595 -16595 m -11418 16595 l 16595 -16595 m -11418 16595 l 16595 -16595 m -11418 16595 l 16595 -16595 m -11418 16595 l 16595 -16595 m -11418 16595 l 16595 -16595 m -11418 16595 l 16595 -16595 m -11418 16595 l 16595 -16595 m -11418 16595 l 16595 -16595 m -11418 16595 l 16595 -16595 m -11418 16595 l 16595 -16595 m -11418 16595 l 16595 -16595 m -11418 16595 l 16595 -16595 m -11418 16595 l 16595 -16595 m -11418 16595 l 16595 -16595 m -10347 0 l 14577 14577 m -9400 -14577 l 9400 9400 m -4223 -9400 l 4223 4223 m -237189 -4223 l 16595 16595 m -11418 -16595 l 16595 16595 m -11418 -16595 l 16595 16595 m -11418 -16595 l 16595 16595 m -11418 -16595 l 16595 16595 m -11418 -16595 l 16595 16595 m -11418 -16595 l 16595 16595 m -11418 -16595 l 16595 16595 m -11418 -16595 l 16595 16595 m -11418 -16595 l 16595 16595 m -11418 -16595 l 16595 16595 m -11418 -16595 l 16595 16595 m -11418 -16595 l 16595 16595 m -11418 -16595 l 16595 16595 m -11418 -16595 l 16595 16595 m -11418 -16595 l 16595 16595 m -11418 -16595 l 16595 16595 m -11418 -16595 l 16595 16595 m -11418 -16595 l 16595 16595 m -11418 -16595 l 16595 16595 m -11418 -16595 l 16595 16595 m -11418 -16595 l 16595 16595 m -11418 -16595 l 16595 16595 m -11418 -16595 l 16595 16595 m -11418 -16595 l 16595 16595 m -11418 -16595 l 16595 16595 m -11418 -16595 l 16595 16595 m -11418 -16595 l 16595 16595 m -11418 -16595 l 16595 16595 m -11418 -16595 l 16595 16595 m -11418 -16595 l 16595 16595 m -11418 -16595 l 16595 16595 m -11418 -16595 l 16595 16595 m -11418 -16595 l 16595 16595 m -11418 -16595 l 16595 16595 m -11418 -16595 l 16595 16595 m -11418 -16595 l 16595 16595 m -11418 -16595 l 16595 16595 m -11418 -16595 l 16595 16595 m -11418 -16595 l 16595 16595 m -11418 -16595 l 16595 16595 m -11418 -16595 l 16595 16595 m -11418 -16595 l 16595 16595 m -234267 -1301 l 1301 1301 m -1301 -6478 l 6478 6478 m -6478 -11655 l 11655 11655" class="C1" /><path d="M 127881 174759 l 237426 0" class="C2" /><path d="M 365307 158163 l -237426 0" class="C2" /><path d="M 351603 392449 l 13704 -13704 m -8527 13704 l 8527 -8527 m -3350 8527 l 3350 -3350 m -237426 -11072 l 221 -221 m -221 5398 l 5398 -5398 m -5398 10575 l 10575 -10575 m -9466 14643 l 14643 -14643 m -9466 14643 l 14643 -14643 m -9466 14643 l 14643 -14643 m -9466 14643 l 14643 -14643 m -9466 14643 l 14643 -14643 m -9466 14643 l 14643 -14643 m -9466 14643 l 14643 -14643 m -9466 14643 l 14643 -14643 m -9466 14643 l 14643 -14643 m -9466 14643 l 14643 -14643 m -9466 14643 l 14643 -14643 m -9466 14643 l 14643 -14643 m -9466 14643 l 14643 -14643 m -9466 14643 l 14643 -14643 m -9466 14643 l 14643 -14643 m -9466 14643 l 14643 -14643 m -9466 14643 l 14643 -14643 m -9466 14643 l 14643 -14643 m -9466 14643 l 14643 -14643 m -9466 14643 l 14643 -14643 m -9466 14643 l 14643 -14643 m -9466 14643 l 14643 -14643 m -9466 14643 l 14643 -14643 m -9466 14643 l 14643 -14643 m -9466 14643 l 14643 -14643 m -9466 14643 l 14643 -14643 m -9466 14643 l 14643 -14643 m -9466 14643 l 14643 -14643 m -9466 14643 l 14643 -14643 m -9466 14643 l 14643 -14643 m -9466 14643 l 14643 -14643 m -9466 14643 l 14643 -14643 m -9466 14643 l 14643 -14643 m -9466 14643 l 14643 -14643 m -9466 14643 l 14643 -14643 m -9466 14643 l 14643 -14643 m -9466 14643 l 14643 -14643 m -9466 14643 l 14643 -14643 m -9466 14643 l 14643 -14643 m -9466 14643 l 14643 -14643 m -9466 14643 l 14643 -14643 m -9466 14643 l 14643 -14643 m -9466 14643 l 14643 -14643 m -10350 0 l 14588 14588 m -9411 -14588 l 9411 9411 m -4234 -9411 l 4234 4234 m -237201 -4234 l 14643 14643 m -9466 -14643 l 14643 14643 m -9466 -14643 l 14643 14643 m -9466 -14643 l 14643 14643 m -9466 -14643 l 14643 14643 m -9466 -14643 l 14643 14643 m -9466 -14643 l 14643 14643 m -9466 -14643 l 14643 14643 m -9466 -14643 l 14643 14643 m -9466 -14643 l 14643 14643 m -9466 -14643 l 14643 14643 m -9466 -14643 l 14643 14643 m -9466 -14643 l 14643 14643 m -9466 -14643 l 14643 14643 m -9466 -14643 l 14643 14643 m -9466 -14643 l 14643 14643 m -9466 -14643 l 14643 14643 m -9466 -14643 l 14643 14643 m -9466 -14643 l 14643 14643 m -9466 -14643 l 14643 14643 m -9466 -14643 l 14643 14643 m -9466 -14643 l 14643 14643 m -9466 -14643 l 14643 14643 m -9466 -14643 l 14643 14643 m -9466 -14643 l 14643 14643 m -9466 -14643 l 14643 14643 m -9466 -14643 l 14643 14643 m -9466 -14643 l 14643 14643 m -9466 -14643 l 14643 14643 m -9466 -14643 l 14643 14643 m -9466 -14643 l 14643 14643 m -9466 -14643 l 14643 14643 m -9466 -14643 l 14643 14643 m -9466 -14643 l 14643 14643 m -9466 -14643 l 14643 14643 m -9466 -14643 l 14643 14643 m -9466 -14643 l 14643 14643 m -9466 -14643 l 14643 14643 m -9466 -14643 l 14643 14643 m -9466 -14643 l 14643 14643 m -9466 -14643 l 14643 14643 m -9466 -14643 l 14643 14643 m -9466 -14643 l 14643 14643 m -232303 -4514 l 4514 4514 m -4514 -9691 l 9691 9691" class="C1" /><path d="M 127881 392449 l 237426 0" class="C2" /><path d="M 365307 377806 l -237426 0" class="C2" /><path d="M 365302 157635 l 0 528" class="C3" /><path d="M 357980 158163 l 0 -528" class="C3" /><path d="M 349906 348521 l 5633 -5633 m -456 5633 l 456 -456 m -219643 -8147 l 1159 -1159 m -1159 6336 l 6336 -6336 m -4585 9762 l 9762 -9762 m -4585 9762 l 9762 -9762 m -4585 9762 l 9762 -9762 m -4585 9762 l 9762 -9762 m -4585 9762 l 9762 -9762 m -4585 9762 l 9762 -9762 m -4585 9762 l 9762 -9762 m -4585 9762 l 9762 -9762 m -4585 9762 l 9762 -9762 m -4585 9762 l 9762 -9762 m -4585 9762 l 9762 -9762 m -4585 9762 l 9762 -9762 m -4585 9762 l 9762 -9762 m -4585 9762 l 9762 -9762 m -4585 9762 l 9762 -9762 m -4585 9762 l 9762 -9762 m -4585 9762 l 9762 -9762 m -4585 9762 l 9762 -9762 m -4585 9762 l 9762 -9762 m -4585 9762 l 9762 -9762 m -4585 9762 l 9762 -9762 m -4585 9762 l 9762 -9762 m -4585 9762 l 9762 -9762 m -4585 9762 l 9762 -9762 m -4585 9762 l 9762 -9762 m -4585 9762 l 9762 -9762 m -4585 9762 l 9762 -9762 m -4585 9762 l 9762 -9762 m -4585 9762 l 9762 -9762 m -4585 9762 l 9762 -9762 m -4585 9762 l 9762 -9762 m -4585 9762 l 9762 -9762 m -4585 9762 l 9762 -9762 m -4585 9762 l 9762 -9762 m -4585 9762 l 9762 -9762 m -4585 9762 l 9762 -9762 m -4585 9762 l 9762 -9762 m -4585 9762 l 9762 -9762 m -4585 9762 l 9762 -9762 m -4585 9762 l 9762 -9762 m -4585 9762 l 9762 -9762 m -5171 0 l 6219 6219 m -1042 -6219 l 1042 1042 m -218478 -1042 l 9762 9762 m -4585 -9762 l 9762 9762 m -4585 -9762 l 9762 9762 m -4585 -9762 l 9762 9762 m -4585 -9762 l 9762 9762 m -4585 -9762 l 9762 9762 m -4585 -9762 l 9762 9762 m -4585 -9762 l 9762 9762 m -4585 -9762 l 9762 9762 m -4585 -9762 l 9762 9762 m -4585 -9762 l 9762 9762 m -4585 -9762 l 9762 9762 m -4585 -9762 l 9762 9762 m -4585 -9762 l 9762 9762 m -4585 -9762 l 9762 9762 m -4585 -9762 l 9762 9762 m -4585 -9762 l 9762 9762 m -4585 -9762 l 9762 9762 m -4585 -9762 l 9762 9762 m -4585 -9762 l 9762 9762 m -4585 -9762 l 9762 9762 m -4585 -9762 l 9762 9762 m -4585 -9762 l 9762 9762 m -4585 -9762 l 9762 9762 m -4585 -9762 l 9762 9762 m -4585 -9762 l 9762 9762 m -4585 -9762 l 9762 9762 m -4585 -9762 l 9762 9762 m -4585 -9762 l 9762 9762 m -4585 -9762 l 9762 9762 m -4585 -9762 l 9762 9762 m -4585 -9762 l 9762 9762 m -4585 -9762 l 9762 9762 m -4585 -9762 l 9762 9762 m -4585 -9762 l 9762 9762 m -4585 -9762 l 9762 9762 m -4585 -9762 l 9762 9762 m -4585 -9762 l 9762 9762 m -4585 -9762 l 9762 9762 m -4585 -9762 l 9762 9762 m -4585 -9762 l 9762 9762 m -218009 -573 l 573 573 m -573 -5750 l 5750 5750" class="C1" /><path d="M 349905 348521 l 5634 -5634 m -457 5634 l 457 -457 m -219643 -8147 l 1158 -1158 m -1158 6335 l 6335 -6335 m -4585 9762 l 9762 -9762 m -4585 9762 l 9762 -9762 m -4585 9762 l 9762 -9762 m -4585 9762 l 9762 -9762 m -4585 9762 l 9762 -9762 m -4585 9762 l 9762 -9762 m -4585 9762 l 9762 -9762 m -4585 9762 l 9762 -9762 m -4585 9762 l 9762 -9762 m -4585 9762 l 9762 -9762 m -4585 9762 l 9762 -9762 m -4585 9762 l 9762 -9762 m -4585 9762 l 9762 -9762 m -4585 9762 l 9762 -9762 m -4585 9762 l 9762 -9762 m -4585 9762 l 9762 -9762 m -4585 9762 l 9762 -9762 m -4585 9762 l 9762 -9762 m -4585 9762 l 9762 -9762 m -4585 9762 l 9762 -9762 m -4585 9762 l 9762 -9762 m -4585 9762 l 9762 -9762 m -4585 9762 l 9762 -9762 m -4585 9762 l 9762 -9762 m -4585 9762 l 9762 -9762 m -4585 9762 l 9762 -9762 m -4585 9762 l 9762 -9762 m -4585 9762 l 9762 -9762 m -4585 9762 l 9762 -9762 m -4585 9762 l 9762 -9762 m -4585 9762 l 9762 -9762 m -4585 9762 l 9762 -9762 m -4585 9762 l 9762 -9762 m -4585 9762 l 9762 -9762 m -4585 9762 l 9762 -9762 m -4585 9762 l 9762 -9762 m -4585 9762 l 9762 -9762 m -4585 9762 l 9762 -9762 m -4585 9762 l 9762 -9762 m -4585 9762 l 9762 -9762 m -4585 9762 l 9762 -9762 m -5172 0 l 6222 6222 m -1045 -6222 l 1045 1045 m -218480 -1045 l 9762 9762 m -4585 -9762 l 9762 9762 m -4585 -9762 l 9762 9762 m -4585 -9762 l 9762 9762 m -4585 -9762 l 9762 9762 m -4585 -9762 l 9762 9762 m -4585 -9762 l 9762 9762 m -4585 -9762 l 9762 9762 m -4585 -9762 l 9762 9762 m -4585 -9762 l 9762 9762 m -4585 -9762 l 9762 9762 m -4585 -9762 l 9762 9762 m -4585 -9762 l 9762 9762 m -4585 -9762 l 9762 9762 m -4585 -9762 l 9762 9762 m -4585 -9762 l 9762 9762 m -4585 -9762 l 9762 9762 m -4585 -9762 l 9762 9762 m -4585 -9762 l 9762 9762 m -4585 -9762 l 9762 9762 m -4585 -9762 l 9762 9762 m -4585 -9762 l 9762 9762 m -4585 -9762 l 9762 9762 m -4585 -9762 l 9762 9762 m -4585 -9762 l 9762 9762 m -4585 -9762 l 9762 9762 m -4585 -9762 l 9762 9762 m -4585 -9762 l 9762 9762 m -4585 -9762 l 9762 9762 m -4585 -9762 l 9762 9762 m -4585 -9762 l 9762 9762 m -4585 -9762 l 9762 9762 m -4585 -9762 l 9762 9762 m -4585 -9762 l 9762 9762 m -4585 -9762 l 9762 9762 m -4585 -9762 l 9762 9762 m -4585 -9762 l 9762 9762 m -4585 -9762 l 9762 9762 m -4585 -9762 l 9762 9762 m -4585 -9762 l 9762 9762 m -4585 -9762 l 9762 9762 m -218006 -571 l 571 571 m -571 -5748 l 5748 5748" class="C1" /><path d="M 135897 348521 l 219643 0" class="C4" /><path d="M 355540 348521 l 0 -9762" class="C4" /><path d="M 355540 338759 l -219643 0" class="C4" /><path d="M 135897 338759 l 0 9762" class="C4" /><path d="M 151761 97992 c 0 8761 -7102 15863 -15863 15863 c -8761 0 -15863 -7102 -15863 -15863 c 0 -8761 7102 -15863 15863 -15863 c 8761 0 15863 7102 15863 15863" class="C5" /><path d="M 138238 103298 l -1225 0 0 -10982 1225 0 0 10982 Z" class="C6" /><path d="M 132971 103298 l -1348 0 l 0 -8592 q -487 464 -1277 929 q -790 464 -1420 697 l 0 -1303 q 1131 -532 1978 -1288 q 847 -757 1199 -1468 l 869 0 l 0 11027 Z M 143512 102002 l 0 1296 l -7259 0 q -15 -487 157 -936 q 277 -742 888 -1461 q 611 -719 1764 -1663 q 1790 -1468 2420 -2326 q 629 -858 629 -1622 q 0 -802 -573 -1352 q -573 -551 -1495 -551 q -974 0 -1558 584 q -584 584 -592 1618 l -1386 -142 q 142 -1551 1071 -2363 q 929 -813 2495 -813 q 1581 0 2502 876 q 921 876 921 2172 q 0 659 -270 1296 q -270 637 -895 1341 q -626 704 -2079 1933 q -1214 1019 -1558 1382 q -345 363 -569 730 l 5386 0 Z" class="C7" /><path d="M 135898 392683 l 0 -6199 m 0 -1550 l 0 -1550 m 0 -1550 l 0 -6199 m 0 -1550 l 0 -1550 m 0 -1550 l 0 -6199 m 0 -1550 l 0 -1550 m 0 -1550 l 0 -6199 m 0 -1550 l 0 -1550 m 0 -1550 l 0 -6199 m 0 -1550 l 0 -1550 m 0 -1550 l 0 -6199 m 0 -1550 l 0 -1550 m 0 -1550 l 0 -6199 m 0 -1550 l 0 -1550 m 0 -1550 l 0 -6199 m 0 -1550 l 0 -1550 m 0 -1550 l 0 -6199 m 0 -1550 l 0 -1550 m 0 -1550 l 0 -6199 m 0 -1550 l 0 -1550 m 0 -1550 l 0 -6199 m 0 -1550 l 0 -1550 m 0 -1550 l 0 -6199 m 0 -1550 l 0 -1550 m 0 -1550 l 0 -6199 m 0 -1550 l 0 -1550 m 0 -1550 l 0 -6199 m 0 -1550 l 0 -1550 m 0 -1550 l 0 -6199 m 0 -1550 l 0 -1550 m 0 -1550 l 0 -6199 m 0 -1550 l 0 -1550 m 0 -1550 l 0 -6199 m 0 -1550 l 0 -1550 m 0 -1550 l 0 -6199 m 0 -1550 l 0 -1550 m 0 -1550 l 0 -6199 m 0 -1550 l 0 -1550 m 0 -1550 l 0 -6199 m 0 -1550 l 0 -1550 m 0 -1550 l 0 -6199 m 0 -1550 l 0 -1550 m 0 -1550 l 0 -6199 m 0 -1550 l 0 -1550 m 0 -1550 l 0 -6199 m 0 -1550 l 0 -1550 m 0 -1550 l 0 -6199 m 0 -1550 l 0 -1550 m 0 -1550 l 0 -6199 m 0 -1550 l 0 -1550 m 0 -1550 l 0 -6199" class="C5" /><path d="M 373843 97992 c 0 8761 -7102 15863 -15863 15863 c -8761 0 -15863 -7102 -15863 -15863 c 0 -8761 7102 -15863 15863 -15863 c 8761 0 15863 7102 15863 15863" class="C5" /><path d="M 360320 103298 l -1225 0 0 -10982 1225 0 0 10982 Z" class="C6" /><path d="M 355054 103298 l -1348 0 l 0 -8592 q -487 464 -1277 929 q -790 464 -1420 697 l 0 -1303 q 1131 -532 1978 -1288 q 847 -757 1199 -1468 l 869 0 l 0 11027 Z M 363586 103298 l -1348 0 l 0 -8592 q -487 464 -1277 929 q -790 464 -1420 697 l 0 -1303 q 1131 -532 1978 -1288 q 847 -757 1199 -1468 l 869 0 l 0 11027 Z" class="C7" /><path d="M 357980 392683 l 0 -6199 m 0 -1550 l 0 -1550 m 0 -1550 l 0 -6199 m 0 -1550 l 0 -1550 m 0 -1550 l 0 -6199 m 0 -1550 l 0 -1550 m 0 -1550 l 0 -6199 m 0 -1550 l 0 -1550 m 0 -1550 l 0 -6199 m 0 -1550 l 0 -1550 m 0 -1550 l 0 -6199 m 0 -1550 l 0 -1550 m 0 -1550 l 0 -6199 m 0 -1550 l 0 -1550 m 0 -1550 l 0 -6199 m 0 -1550 l 0 -1550 m 0 -1550 l 0 -6199 m 0 -1550 l 0 -1550 m 0 -1550 l 0 -6199 m 0 -1550 l 0 -1550 m 0 -1550 l 0 -6199 m 0 -1550 l 0 -1550 m 0 -1550 l 0 -6199 m 0 -1550 l 0 -1550 m 0 -1550 l 0 -6199 m 0 -1550 l 0 -1550 m 0 -1550 l 0 -6199 m 0 -1550 l 0 -1550 m 0 -1550 l 0 -6199 m 0 -1550 l 0 -1550 m 0 -1550 l 0 -6199 m 0 -1550 l 0 -1550 m 0 -1550 l 0 -6199 m 0 -1550 l 0 -1550 m 0 -1550 l 0 -6199 m 0 -1550 l 0 -1550 m 0 -1550 l 0 -6199 m 0 -1550 l 0 -1550 m 0 -1550 l 0 -6199 m 0 -1550 l 0 -1550 m 0 -1550 l 0 -6199 m 0 -1550 l 0 -1550 m 0 -1550 l 0 -6199 m 0 -1550 l 0 -1550 m 0 -1550 l 0 -6199 m 0 -1550 l 0 -1550 m 0 -1550 l 0 -6199 m 0 -1550 l 0 -1550 m 0 -1550 l 0 -6199 m 0 -1550 l 0 -1550 m 0 -1550 l 0 -6199" class="C5" /><path d="M 179451 377806 l 0 -29286" class="C8" /><path d="M 175790 374146 l 7321 7321" class="C8" /><path d="M 183112 352181 l -7321 -7321" class="C8" /><path d="M 171976 363963 l 93 1192 q -706 160 -1025 453 q -513 486 -513 1199 q 0 573 320 1005 q 413 566 1205 892 q 792 326 2257 340 q -659 -433 -979 -1059 q -320 -626 -320 -1312 q 0 -1199 882 -2041 q 882 -842 2281 -842 q 919 0 1708 396 q 789 396 1209 1089 q 420 693 420 1571 q 0 1498 -1102 2444 q -1102 946 -3632 946 q -2830 0 -4115 -1045 q -1119 -912 -1119 -2457 q 0 -1152 646 -1888 q 646 -736 1785 -882 m 4208 4894 q 619 0 1185 -263 q 566 -263 862 -736 q 296 -473 296 -992 q 0 -759 -613 -1305 q -613 -546 -1665 -546 q -1012 0 -1595 539 q -583 539 -583 1358 q 0 812 583 1378 q 583 566 1528 566 Z M 174533 362597 q -1731 0 -2787 -356 q -1055 -356 -1628 -1059 q -573 -703 -573 -1768 q 0 -786 316 -1378 q 316 -593 912 -979 q 596 -386 1452 -606 q 856 -220 2307 -220 q 1718 0 2773 353 q 1055 353 1631 1055 q 576 703 576 1775 q 0 1412 -1012 2217 q -1219 966 -3969 966 m 0 -1232 q 2404 0 3200 -563 q 796 -563 796 -1388 q 0 -826 -799 -1388 q -799 -563 -3196 -563 q -2411 0 -3203 563 q -792 563 -792 1402 q 0 826 699 1318 q 892 619 3296 619 Z" class="C9" /><path d="M 179451 338759 l -0 -164000" class="C8" /><path d="M 175790 335098 l 7321 7321" class="C8" /><path d="M 183112 178419 l -7321 -7321" class="C8" /><path d="M 176767 267563 l -160 -1199 q 1019 -206 1468 -703 q 449 -496 449 -1209 q 0 -846 -586 -1428 q -586 -583 -1452 -583 q -826 0 -1362 539 q -536 539 -536 1372 q 0 340 133 846 l -1052 -133 q 13 -120 13 -193 q 0 -766 -400 -1378 q -400 -613 -1232 -613 q -659 0 -1092 446 q -433 446 -433 1152 q 0 699 439 1165 q 439 466 1318 599 l -213 1199 q -1205 -220 -1868 -999 q -663 -779 -663 -1938 q 0 -799 343 -1472 q 343 -673 936 -1029 q 593 -356 1259 -356 q 633 0 1152 340 q 519 340 826 1005 q 200 -866 829 -1345 q 629 -479 1575 -479 q 1279 0 2167 932 q 889 932 889 2357 q 0 1285 -766 2134 q -766 849 -1984 969 Z M 176767 259978 l -160 -1199 q 1019 -206 1468 -703 q 449 -496 449 -1209 q 0 -846 -586 -1428 q -586 -583 -1452 -583 q -826 0 -1362 539 q -536 539 -536 1372 q 0 340 133 846 l -1052 -133 q 13 -120 13 -193 q 0 -766 -400 -1378 q -400 -613 -1232 -613 q -659 0 -1092 446 q -433 446 -433 1152 q 0 699 439 1165 q 439 466 1318 599 l -213 1199 q -1205 -220 -1868 -999 q -663 -779 -663 -1938 q 0 -799 343 -1472 q 343 -673 936 -1029 q 593 -356 1259 -356 q 633 0 1152 340 q 519 340 826 1005 q 200 -866 829 -1345 q 629 -479 1575 -479 q 1279 0 2167 932 q 889 932 889 2357 q 0 1285 -766 2134 q -766 849 -1984 969 Z M 171973 246181 l 93 1192 q -706 160 -1025 453 q -513 486 -513 1199 q 0 573 320 1005 q 413 566 1205 892 q 792 326 2257 340 q -659 -433 -979 -1059 q -320 -626 -320 -1312 q 0 -1199 882 -2041 q 882 -842 2281 -842 q 919 0 1708 396 q 789 396 1209 1089 q 420 693 420 1571 q 0 1498 -1102 2444 q -1102 946 -3632 946 q -2830 0 -4115 -1045 q -1119 -912 -1119 -2457 q 0 -1152 646 -1888 q 646 -736 1785 -882 m 4208 4894 q 619 0 1185 -263 q 566 -263 862 -736 q 296 -473 296 -992 q 0 -759 -613 -1305 q -613 -546 -1665 -546 q -1012 0 -1595 539 q -583 539 -583 1358 q 0 812 583 1378 q 583 566 1528 566 Z" class="C9" /><path d="M 448882 300865 l -5380 4262 q -4981 0 -7831 -453 q -5167 -826 -8097 -3196 q -3756 -3063 -3756 -8577 q 0 -3649 1412 -6765 q 1119 -2477 3356 -4981 q 1065 -1199 3915 -3862 q -266 -906 -759 -1332 q -493 -426 -1052 -426 q -693 0 -1358 932 l -453 0 q 559 -2797 1172 -3862 q 1492 -2557 4901 -2557 q 2291 0 3942 1119 q 1838 1252 1838 3250 q 0 1305 -1012 2211 q -932 746 -1518 1225 q 1492 1785 2863 2530 q 1372 746 3423 746 l 2450 0 l 0 4635 l -2450 0 q -4075 0 -6326 -1225 q -2251 -1225 -3609 -4049 q -1944 1252 -3516 2584 q -2131 1811 -3329 3543 q -1492 2157 -1492 4155 q 0 4501 4501 6978 q 3463 1891 9509 2557 q 3196 346 8550 346 l 107 213 Z M 460255 285762 l -15182 0 l 0 -4635 l 13238 0 q 0 -3143 -746 -4794 q -506 -1145 -2504 -3303 l 2078 -4342 q 1918 2424 2397 3782 q 719 2051 719 6792 l 0 6499 m -2717 6472 l -2078 3862 l -4315 -2237 l 1971 -3889 l 4421 2264 Z M 469258 278970 q 0 2131 -772 4128 q -400 1065 -1731 3383 l -479 -266 q 80 -772 146 -1785 q 67 -1012 67 -1358 q 0 -2770 -439 -7738 q -439 -4968 -1052 -10375 q -373 -3276 -826 -6686 q 533 -1172 1212 -2530 q 679 -1358 1292 -2557 q 426 3036 1079 8310 q 653 5274 1025 9509 q 479 5274 479 7964 Z M 498211 285762 q 0 2930 -2504 6073 q -2184 2770 -5434 4768 q -3090 1918 -5087 1918 q -1838 0 -3969 -533 q -1625 -400 -3889 -1252 q -1918 -719 -3809 -1438 l 453 -1065 q 1758 346 3662 706 q 1904 360 3449 360 q 3409 0 7112 -2184 q 3356 -1998 5727 -5047 q 2371 -3050 2371 -5500 q 0 -2104 -1225 -4421 q -986 -1864 -2770 -3836 l 1518 -4182 q 2184 2024 3223 4049 q 1172 2291 1172 5114 l 0 6472 Z M 509504 285762 l -13158 0 l 0 -4635 l 10468 0 l -3170 -22587 l -1385 -666 q 0 -1838 320 -3449 q 320 -1611 959 -3130 l 400 293 q 0 1545 1731 2317 q 1332 533 2690 1065 q 0 1332 -213 2850 q -213 1518 -506 2264 l -1279 -426 l 3143 20882 l 0 5221 Z M 518507 278970 q 0 2131 -772 4128 q -400 1065 -1731 3383 l -479 -266 q 80 -772 146 -1785 q 67 -1012 67 -1358 q 0 -2770 -439 -7738 q -439 -4968 -1052 -10375 q -373 -3276 -826 -6686 q 533 -1172 1212 -2530 q 679 -1358 1292 -2557 q 426 3036 1079 8310 q 653 5274 1025 9509 q 479 5274 479 7964 Z" class="C9" /><path d="M 559526 284164 q 0 4395 -3250 8736 q -3622 4848 -8364 4848 q -1758 0 -3622 -400 q -1358 -293 -3543 -1012 q -1731 -613 -3463 -1199 l 453 -932 q 1492 346 3130 732 q 1638 386 2943 386 q 3250 0 6153 -1651 q 2264 -1305 4528 -3782 q 1145 -1252 3250 -4075 q -3596 0 -5380 -1145 q -2024 -1305 -2024 -4288 q 0 -2743 1279 -5087 q 1492 -2717 3782 -2717 q 2317 0 3329 2690 q 799 2104 799 5860 l 0 3036 m -1678 -2903 q -586 -2557 -1412 -3543 q -719 -852 -1758 -852 q -746 0 -1292 493 q -546 493 -546 1239 q 0 1305 1172 1984 q 1172 679 3836 679 Z M 572843 285762 l -15182 0 l 0 -4635 l 13238 0 q 0 -3143 -746 -4794 q -506 -1145 -2504 -3303 l 2078 -4342 q 1918 2424 2397 3782 q 719 2051 719 6792 l 0 6499 m -2717 6472 l -2078 3862 l -4315 -2237 l 1971 -3889 l 4421 2264 Z M 586028 256090 l -2264 3569 l -3329 -2184 l 2291 -3543 l 3303 2157 m -6100 1598 l -2104 3622 l -3276 -2157 l 2211 -3569 l 3170 2104 m 7245 28074 l -16194 0 l 0 -4635 l 9136 0 q 1651 0 2810 -120 q 1159 -120 2517 -519 q -4581 -666 -5940 -1252 q -3063 -1332 -3063 -4528 q 0 -2797 1465 -5274 q 1651 -2797 4022 -2797 q 2717 0 4128 3463 q 1119 2743 1119 6472 l 0 9189 m -2397 -9296 q -613 -2131 -1172 -3170 q -1092 -1998 -2637 -1998 q -746 0 -1279 586 q -533 586 -533 1385 q 0 2024 2104 2717 q 746 240 3516 479 Z M 598467 285762 l -13158 0 l 0 -4635 l 10468 0 l -3170 -22587 l -1385 -666 q 0 -1838 320 -3449 q 320 -1611 959 -3130 l 400 293 q 0 1545 1731 2317 q 1332 533 2690 1065 q 0 1332 -213 2850 q -213 1518 -506 2264 l -1279 -426 l 3143 20882 l 0 5221 Z M 607470 278970 q 0 2131 -772 4128 q -400 1065 -1731 3383 l -479 -266 q 80 -772 146 -1785 q 67 -1012 67 -1358 q 0 -2770 -439 -7738 q -439 -4968 -1052 -10375 q -373 -3276 -826 -6686 q 533 -1172 1212 -2530 q 679 -1358 1292 -2557 q 426 3036 1079 8310 q 653 5274 1025 9509 q 479 5274 479 7964 Z" class="C9" /><path d="M 663830 285762 l -25410 0 q -5114 0 -8150 -1785 q -3809 -2237 -3809 -7005 q 0 -2477 1119 -5061 q 400 -932 1918 -3543 l 799 506 q -586 1225 -1145 2450 q -772 1891 -772 3383 q 0 3143 3303 4874 q 2957 1545 7485 1545 l 22560 0 l 0 -719 q 0 -2983 -719 -4861 q -719 -1878 -2450 -3210 l 2051 -4342 q 1172 1465 1412 1838 q 1811 2983 1811 8683 l 0 7245 m -12545 -24212 l -1971 3862 l -4368 -2237 l 2024 -3862 l 4315 2237 m -6073 2477 l -1998 3809 l -4395 -2264 l 2078 -3836 l 4315 2291 Z M 676349 285762 l -3729 0 q -1811 0 -2903 -1465 q -959 -1279 -1452 -3809 q -493 -2530 -759 -6233 q -160 -3010 -333 -6179 q -173 -3170 -453 -4808 q -280 -1638 -759 -2677 q -586 -1279 -1625 -2237 l 3276 -5167 q 1039 3196 1465 7644 q 266 2770 533 13105 q 479 4741 1385 6073 q 746 1119 1625 1119 l 3729 0 l 0 4635 Z M 689667 285762 l -15182 0 l 0 -4635 l 13238 0 q 0 -3143 -746 -4794 q -506 -1145 -2504 -3303 l 2078 -4342 q 1918 2424 2397 3782 q 719 2051 719 6792 l 0 6499 m -2104 -24611 l -2078 3862 l -4315 -2237 l 1971 -3889 l 4421 2264 Z M 698669 278970 q 0 2131 -772 4128 q -400 1065 -1731 3383 l -479 -266 q 80 -772 146 -1785 q 67 -1012 67 -1358 q 0 -2770 -439 -7738 q -439 -4968 -1052 -10375 q -373 -3276 -826 -6686 q 533 -1172 1212 -2530 q 679 -1358 1292 -2557 q 426 3036 1079 8310 q 653 5274 1025 9509 q 479 5274 479 7964 Z M 727622 285762 q 0 2930 -2504 6073 q -2184 2770 -5434 4768 q -3090 1918 -5087 1918 q -1838 0 -3969 -533 q -1625 -400 -3889 -1252 q -1918 -719 -3809 -1438 l 453 -1065 q 1758 346 3662 706 q 1904 360 3449 360 q 3409 0 7112 -2184 q 3356 -1998 5727 -5047 q 2371 -3050 2371 -5500 q 0 -2104 -1225 -4421 q -986 -1864 -2770 -3836 l 1518 -4182 q 2184 2024 3223 4049 q 1172 2291 1172 5114 l 0 6472 m -3969 -24798 l -2078 3862 l -4315 -2237 l 1971 -3889 l 4421 2264 Z M 756522 285762 l -30764 0 l 0 -4635 l 21708 0 q -2717 -2104 -4581 -3276 q -2317 -1465 -4235 -2131 q -2157 -746 -4368 -746 q -1358 0 -2743 186 q 772 -1971 2024 -3170 q 1811 -1731 4581 -1731 q 2717 0 6419 2664 q 1838 1332 5993 5061 q 3223 2903 4368 3143 l 1598 0 l 0 4635 m -12732 -24798 l -2078 3862 l -4315 -2237 l 1971 -3889 l 4421 2264 Z" class="C9" /><path d="M 798180 300865 l -5380 4262 q -4981 0 -7831 -453 q -5167 -826 -8097 -3196 q -3756 -3063 -3756 -8577 q 0 -3649 1412 -6765 q 1119 -2477 3356 -4981 q 1065 -1199 3915 -3862 q -266 -906 -759 -1332 q -493 -426 -1052 -426 q -693 0 -1358 932 l -453 0 q 559 -2797 1172 -3862 q 1492 -2557 4901 -2557 q 2291 0 3942 1119 q 1838 1252 1838 3250 q 0 1305 -1012 2211 q -932 746 -1518 1225 q 1492 1785 2863 2530 q 1372 746 3423 746 l 2450 0 l 0 4635 l -2450 0 q -4075 0 -6326 -1225 q -2251 -1225 -3609 -4049 q -1944 1252 -3516 2584 q -2131 1811 -3329 3543 q -1492 2157 -1492 4155 q 0 4501 4501 6978 q 3463 1891 9509 2557 q 3196 346 8550 346 l 107 213 Z M 827958 285762 l -33587 0 l 0 -4635 l 4075 -27 q 1811 0 3383 -479 q 1811 -559 4102 -1971 q 479 -1172 772 -2517 q 293 -1345 293 -2597 q 0 -2850 -533 -6286 q -400 -2504 -1199 -5886 q -426 -1758 -1119 -4288 l -1651 -826 q 186 -1598 546 -3090 q 360 -1492 999 -2877 q 426 1252 1944 1944 q 1252 559 3196 746 q -266 2743 -400 3489 q -133 746 -506 1838 q -186 -27 -986 -266 l -346 -107 q 932 3116 1532 6406 q 599 3289 599 5527 q 0 1891 -373 4208 q -133 826 -479 2557 q 4661 -2690 5966 -3303 q 3942 -1864 6765 -1864 q 3596 0 5380 2104 q 1625 1918 1625 5460 l 0 6739 m -4208 -6686 q 0 -1358 -1398 -2064 q -1398 -706 -4009 -706 q -1944 0 -4475 852 q -2078 693 -4421 1918 q -1731 906 -3569 2051 l 11586 0 q 6286 0 6286 -2051 Z M 841143 256090 l -2264 3569 l -3329 -2184 l 2291 -3543 l 3303 2157 m -6100 1598 l -2104 3622 l -3276 -2157 l 2211 -3569 l 3170 2104 m 7245 28074 l -16194 0 l 0 -4635 l 9136 0 q 1651 0 2810 -120 q 1159 -120 2517 -519 q -4581 -666 -5940 -1252 q -3063 -1332 -3063 -4528 q 0 -2797 1465 -5274 q 1651 -2797 4022 -2797 q 2717 0 4128 3463 q 1119 2743 1119 6472 l 0 9189 m -2397 -9296 q -613 -2131 -1172 -3170 q -1092 -1998 -2637 -1998 q -746 0 -1279 586 q -533 586 -533 1385 q 0 2024 2104 2717 q 746 240 3516 479 Z M 863783 285762 l -2770 0 q -1785 0 -4022 -799 q -2584 -932 -4555 -2557 q -1545 1891 -3156 2624 q -1611 732 -4701 732 l -4155 0 l 0 -4635 l 4075 0 q 2424 0 4315 -1225 q 1465 -959 2664 -2690 q 1625 -2344 3995 -4075 q 2131 -1545 3915 -1971 q 1838 2797 2930 5034 q 1465 3036 1465 4928 l 0 4635 m -3063 -5247 q -346 -1545 -1065 -3036 q -613 -1252 -1625 -2584 q -1279 320 -2157 1199 q -586 559 -1385 1891 q 959 1039 2704 1864 q 1745 826 3289 1012 l 240 -346 Z" class="C9" /><path d="M 350725 377806 l 4815 -4815 m -14643 4289 l 14643 -14643 m -14643 4289 l 14643 -14643 m -14643 4289 l 8052 -8052 m -205305 29286 l 6896 -6896 m 190357 -190357 l 5794 -5794 m -210794 200440 l 14643 -14643 m -14643 4289 l 14643 -14643 m -14643 4289 l 5970 -5970 m 206489 -9762 l 7183 -7183 m -14643 4289 l 14643 -14643 m -14643 4289 l 14643 -14643 m -14643 4289 l 14643 -14643 m -14643 4289 l 14643 -14643 m -14643 4289 l 14643 -14643 m -14643 4289 l 14643 -14643 m -14643 4289 l 14643 -14643 m -14643 4289 l 14643 -14643 m -14643 4289 l 14643 -14643 m -14643 4289 l 14643 -14643 m -14643 4289 l 14643 -14643 m -14643 4289 l 14643 -14643 m -14643 4289 l 14643 -14643 m -14643 4289 l 14643 -14643 m -14643 4289 l 14643 -14643 m -214265 162494 l 9265 -9265 m -14643 4289 l 14643 -14643 m -14643 4289 l 14643 -14643 m -14643 4289 l 14643 -14643 m -14643 4289 l 14643 -14643 m -14643 4289 l 14643 -14643 m -14643 4289 l 14643 -14643 m -14643 4289 l 14643 -14643 m -14643 4289 l 14643 -14643 m -14643 4289 l 14643 -14643 m -14643 4289 l 14643 -14643 m -14643 4289 l 14643 -14643 m -14643 4289 l 14643 -14643 m -14643 4289 l 14643 -14643 m -14643 4289 l 14643 -14643 m -14643 4289 l 14067 -14067 m -14067 3713 l 3713 -3713 m 10054 0 l 876 876 m 190357 190357 l 11815 11815 m -213402 -203048 l 11230 11230 m 190357 190357 l 1461 1461 m -1461 -42877 l 3829 3829 m 9762 9762 l 1051 1051 m -11406 -1051 l 11406 11406 m -14643 -4289 l 14643 14643 m -219643 -2208 l 9734 9734 m -9734 -40796 l 1748 1748 m 9762 9762 l 3133 3133 m -13487 -3133 l 13487 13487 m -14643 -4289 l 14643 14643 m 195852 -197603 l 9148 9148 m -14643 -4289 l 14643 14643 m -14643 -4289 l 14643 14643 m -14643 -4289 l 14643 14643 m -14643 -4289 l 14643 14643 m -14643 -4289 l 14643 14643 m -14643 -4289 l 14643 14643 m -14643 -4289 l 14643 14643 m -14643 -4289 l 14643 14643 m -14643 -4289 l 14643 14643 m -14643 -4289 l 14643 14643 m -14643 -4289 l 14643 14643 m -14643 -4289 l 14643 14643 m -14643 -4289 l 14643 14643 m -14643 -4289 l 14643 14643 m -14643 -4289 l 14184 14184 m -219184 -12102 l 12102 12102 m -12102 -157059 l 14643 14643 m -14643 -4289 l 14643 14643 m -14643 -4289 l 14643 14643 m -14643 -4289 l 14643 14643 m -14643 -4289 l 14643 14643 m -14643 -4289 l 14643 14643 m -14643 -4289 l 14643 14643 m -14643 -4289 l 14643 14643 m -14643 -4289 l 14643 14643 m -14643 -4289 l 14643 14643 m -14643 -4289 l 14643 14643 m -14643 -4289 l 14643 14643 m -14643 -4289 l 14643 14643 m -14643 -4289 l 14643 14643" class="C3" /><path d="M 135897 377806 l 14643 0" class="C2" /><path d="M 150540 377806 l 0 -29286" class="C2" /><path d="M 150540 348521 l -14643 0" class="C3" /><path d="M 340897 377806 l 14643 0" class="C2" /><path d="M 355540 348521 l -14643 0" class="C3" /><path d="M 340897 348521 l 0 29286" class="C2" /><path d="M 355540 174759 l -14643 0" class="C2" /><path d="M 340897 174759 l 0 164000" class="C2" /><path d="M 340897 338759 l 14643 0" class="C3" /><path d="M 135897 338759 l 14643 0" class="C3" /><path d="M 150540 338759 l 0 -164000" class="C2" /><path d="M 150540 174759 l -14643 0" class="C2" /><path d="M 135897 348521 l 0 29286" class="C4" /><path d="M 355540 377806 l 0 -29286" class="C4" /><path d="M 355540 338759 l -0 -164000" class="C4" /><path d="M 135897 172806 l 0 165952" class="C4" /></g></svg>